<?xml version="1.0" standalone="no"?>
<!DOCTYPE svg PUBLIC "-//W3C//DTD SVG 20010904//EN"
 "http://www.w3.org/TR/2001/REC-SVG-20010904/DTD/svg10.dtd">
<svg version="1.0" xmlns="http://www.w3.org/2000/svg"
 width="192.000000pt" height="192.000000pt" viewBox="0 0 192.000000 192.000000"
 preserveAspectRatio="xMidYMid meet">

<g transform="translate(0.000000,192.000000) scale(0.100000,-0.100000)"
fill="#000000" stroke="none">
<path d="M270 1448 c-11 -18 -23 -48 -26 -67 -10 -50 4 -276 20 -346 9 -36 13
-84 9 -120 -17 -201 112 -449 312 -599 147 -111 278 -153 449 -143 131 8 209
33 326 104 181 112 302 259 365 446 l39 114 -18 67 c-15 56 -27 76 -64 111
l-45 44 -8 163 c-9 177 -15 226 -31 246 -6 7 -33 12 -64 12 -44 0 -70 -8 -145
-46 -103 -52 -116 -53 -253 -15 -130 35 -312 23 -429 -29 -65 -29 -114 -20
-234 41 -122 62 -173 66 -203 17z"/>
</g>
</svg>
